# xmcd
#
# Track frame offsets: 
#        150
#        21348
#        42954
#        55424
#        71293
#        90083
#        102740
#
# Disc length: 1552 seconds
#
# Revision: 0
# Processed by: cddbd v1.5.2PL0 Copyright (c) Steve Scherf et al.
# Submitted via: ExactAudioCopyFreeDBPlugin 1.0
#
DISCID=55060e07
DTITLE=VNM_B.Melo - Trailblazer
DYEAR=2017
DGENRE=rap
TTITLE0=DUMA (ft. Gedz)
TTITLE1=Tresz tok (ft. Michał Lange)
TTITLE2=SAM (ft. Jarecki)
TTITLE3=2ND Thoughts (ft. Tomson)
TTITLE4=Życie 33 (ft. PlanBe)
TTITLE5=OCZEKIWANIA (ft. SHY)
TTITLE6=SENTYMENTY (ft. Sztoss)
EXTD=
EXTT0=
EXTT1=
EXTT2=
EXTT3=
EXTT4=
EXTT5=
EXTT6=
PLAYORDER=
